<mxfile host="Electron" agent="Mozilla/5.0 (Macintosh; Intel Mac OS X 10_15_7) AppleWebKit/537.36 (KHTML, like Gecko) draw.io/26.1.1 Chrome/132.0.6834.210 Electron/34.3.3 Safari/537.36" version="26.1.1">
  <diagram name="Page-1" id="d-CJclMxC2RRjFJRh-sm">
    <mxGraphModel dx="1114" dy="878" grid="1" gridSize="10" guides="1" tooltips="1" connect="1" arrows="1" fold="1" page="1" pageScale="1" pageWidth="827" pageHeight="1169" math="0" shadow="0">
      <root>
        <mxCell id="0" />
        <mxCell id="1" parent="0" />
        <mxCell id="x6aq50YO2quWte2WLcAP-16" style="edgeStyle=orthogonalEdgeStyle;rounded=0;orthogonalLoop=1;jettySize=auto;html=1;entryX=0.5;entryY=0;entryDx=0;entryDy=0;endArrow=block;endFill=1;" edge="1" parent="1" source="x6aq50YO2quWte2WLcAP-2" target="x6aq50YO2quWte2WLcAP-14">
          <mxGeometry relative="1" as="geometry" />
        </mxCell>
        <mxCell id="x6aq50YO2quWte2WLcAP-21" style="edgeStyle=orthogonalEdgeStyle;rounded=0;orthogonalLoop=1;jettySize=auto;html=1;entryX=0;entryY=0.5;entryDx=0;entryDy=0;curved=1;endArrow=none;startFill=0;" edge="1" parent="1" source="x6aq50YO2quWte2WLcAP-2" target="x6aq50YO2quWte2WLcAP-18">
          <mxGeometry relative="1" as="geometry" />
        </mxCell>
        <mxCell id="x6aq50YO2quWte2WLcAP-2" value="Job&lt;div&gt;CoroutineScope&lt;/div&gt;" style="rounded=0;whiteSpace=wrap;html=1;" vertex="1" parent="1">
          <mxGeometry x="280" y="120" width="100" height="40" as="geometry" />
        </mxCell>
        <mxCell id="x6aq50YO2quWte2WLcAP-4" value="Job&lt;div&gt;runBlocking&lt;/div&gt;" style="rounded=0;whiteSpace=wrap;html=1;" vertex="1" parent="1">
          <mxGeometry x="120" y="120" width="100" height="40" as="geometry" />
        </mxCell>
        <mxCell id="x6aq50YO2quWte2WLcAP-17" style="edgeStyle=orthogonalEdgeStyle;rounded=0;orthogonalLoop=1;jettySize=auto;html=1;entryX=0.5;entryY=0;entryDx=0;entryDy=0;endArrow=block;endFill=1;" edge="1" parent="1" source="x6aq50YO2quWte2WLcAP-14" target="x6aq50YO2quWte2WLcAP-15">
          <mxGeometry relative="1" as="geometry" />
        </mxCell>
        <mxCell id="x6aq50YO2quWte2WLcAP-22" style="edgeStyle=orthogonalEdgeStyle;rounded=0;orthogonalLoop=1;jettySize=auto;html=1;curved=1;endArrow=none;startFill=0;" edge="1" parent="1" source="x6aq50YO2quWte2WLcAP-14" target="x6aq50YO2quWte2WLcAP-19">
          <mxGeometry relative="1" as="geometry" />
        </mxCell>
        <mxCell id="x6aq50YO2quWte2WLcAP-14" value="launch Job&lt;div&gt;Coroutine1&lt;/div&gt;" style="rounded=0;whiteSpace=wrap;html=1;" vertex="1" parent="1">
          <mxGeometry x="280" y="220" width="100" height="40" as="geometry" />
        </mxCell>
        <mxCell id="x6aq50YO2quWte2WLcAP-23" style="edgeStyle=orthogonalEdgeStyle;rounded=0;orthogonalLoop=1;jettySize=auto;html=1;entryX=0;entryY=0.5;entryDx=0;entryDy=0;curved=1;endArrow=none;startFill=0;" edge="1" parent="1" source="x6aq50YO2quWte2WLcAP-15" target="x6aq50YO2quWte2WLcAP-20">
          <mxGeometry relative="1" as="geometry" />
        </mxCell>
        <mxCell id="x6aq50YO2quWte2WLcAP-15" value="launch Job&lt;div&gt;Coroutine2&lt;/div&gt;" style="rounded=0;whiteSpace=wrap;html=1;" vertex="1" parent="1">
          <mxGeometry x="280" y="320" width="100" height="40" as="geometry" />
        </mxCell>
        <mxCell id="x6aq50YO2quWte2WLcAP-18" value="CoroutineExceptionHandler&lt;div&gt;exceptionHandler&lt;/div&gt;" style="rounded=1;whiteSpace=wrap;html=1;dashed=1;fillColor=#dae8fc;strokeColor=#6c8ebf;" vertex="1" parent="1">
          <mxGeometry x="460" y="130" width="170" height="50" as="geometry" />
        </mxCell>
        <mxCell id="x6aq50YO2quWte2WLcAP-19" value="CoroutineExceptionHandler&lt;div&gt;exceptionHandler&lt;/div&gt;" style="rounded=1;whiteSpace=wrap;html=1;dashed=1;fillColor=#dae8fc;strokeColor=#6c8ebf;" vertex="1" parent="1">
          <mxGeometry x="460" y="230" width="170" height="50" as="geometry" />
        </mxCell>
        <mxCell id="x6aq50YO2quWte2WLcAP-20" value="CoroutineExceptionHandler&lt;div&gt;exceptionHandler&lt;/div&gt;" style="rounded=1;whiteSpace=wrap;html=1;dashed=1;fillColor=#dae8fc;strokeColor=#6c8ebf;" vertex="1" parent="1">
          <mxGeometry x="460" y="330" width="170" height="50" as="geometry" />
        </mxCell>
      </root>
    </mxGraphModel>
  </diagram>
</mxfile>
